<?xml version="1.0" encoding="utf-8"?>
<!DOCTYPE svg PUBLIC "-//W3C//DTD SVG 1.0//EN" "http://www.w3.org/TR/2001/REC-SVG-20010904/DTD/svg10.dtd" >

<svg id="map" xml:space="preserve" width="1280px" height="780px" viewBox="100 0 1280 750" zoomAndPan="magnify" style="shape-rendering:geometricPrecision;text-rendering:geometricPrecision;image-rendering:optimizeQuality;color-interpolation:sRGB" xmlns:dbxns="http://www.dbxgeomatics.com/ns">

      <g id="ballGroup" stroke-width="5" >
         <path
            d="M 313.61796,336.73558 L 282.76857,294.00941 L 296.65006,264.75226 C 304.28487,248.65702 310.53157,235.01905 310.53157,234.45077 C 310.53157,233.88256 295.88797,221.31197 277.99021,206.50678 C 260.09248,191.70158 245.4511,179.30761 245.45357,178.94671 C 245.45618,178.60115 246.43403,176.85033 247.62664,175.07647 L 249.79507,171.85127 L 281.05805,196.49331 L 312.321,221.13533 L 318.86426,219.13111 C 322.46312,218.02534 325.39802,216.61239 325.38636,215.98272 C 325.37467,215.35302 324.63524,211.44438 323.74316,207.29772 L 322.1213,199.74922 L 275.72461,163.31986 L 229.3279,126.89052 L 226.58418,132.19673 C 225.07521,135.12244 222.74043,138.0328 221.39576,138.67016 C 220.05121,139.29984 216.85056,140.82798 214.28315,142.06429 C 209.70317,144.26818 209.57452,144.26818 207.45147,142.21787 C 205.69552,140.52849 205.08572,138.33996 204.21644,130.62253 L 203.14533,121.10052 L 167.48533,97.326226 L 131.82539,73.551926 L 127.57287,75.279711 C 125.23399,76.22423 122.9927,77.007489 122.59222,77.007489 C 122.19181,77.007489 121.23403,74.481089 120.4639,71.394116 C 119.11151,65.965039 119.14626,65.535008 121.48142,58.585482 C 122.85041,54.515592 123.54297,51.006274 123.07802,50.499457 C 122.62644,50.007999 119.4429,48.502907 116.00346,47.174432 C 110.7055,45.108771 109.48854,44.955192 108.03906,46.199196 C 107.09802,47.005495 97.504029,55.790314 86.719107,65.711631 L 67.110156,83.757367 L 65.342018,95.045551 L 63.573896,106.34909 L 57.552348,110.49578 C 52.388037,114.05117 50.085245,114.86515 41.378087,116.23201 C 26.948408,118.48965 26.445217,117.49138 36.74255,107.04021 C 40.565257,103.1623 43.669379,99.422602 43.640493,98.739168 C 43.611605,98.055731 40.577115,81.31543 36.897325,61.557269 L 30.206666,25.627056 L 15.10066,21.173211 C 6.7923843,18.73896 0.010974091,16.465962 0.030941805,16.14344 C 0.065714293,15.582873 2.934282,13.002716 12.135096,5.2315325 L 16.372735,1.6531 L 31.133533,2.82799 C 44.42889,3.8800215 47.198402,4.4866653 59.031433,8.8637146 C 70.174053,12.979684 74.265195,15.183563 85.978857,23.354058 C 99.164196,32.553549 123.19901,45.607908 123.98365,43.995309 C 124.1881,43.580644 124.88795,38.911788 125.53897,33.620933 C 126.18997,28.330073 126.97294,23.576754 127.279,23.069932 C 128.93025,20.274764 133.56936,17.218509 136.14639,17.218509 C 139.08148,17.218509 139.1034,17.264581 141.83191,28.445258 L 144.57101,39.67969 L 180.16171,64.521378 L 215.75243,89.355381 L 223.88294,86.114831 L 232.01353,82.866596 L 235.01229,87.520091 C 236.89904,90.445807 238.01099,93.432954 238.01099,95.58309 C 238.01099,98.869708 239.89368,100.48999 286.35805,137.22651 L 334.70513,175.45276 L 334.70513,183.69235 L 334.70513,191.93196 L 340.28354,192.69987 L 345.86211,193.47546 L 345.85862,202.49831 L 345.85515,211.52121 L 340.37309,216.79669 C 335.05526,221.91094 334.85821,222.29486 333.79421,229.52851 L 332.69736,236.98488 L 336.72289,241.13922 C 340.58802,245.11696 341.02151,245.28593 347.5975,245.28593 L 354.44648,245.28593 L 353.86805,238.37477 L 353.2896,231.4483 L 360.73292,224.97485 L 368.17612,218.50912 L 368.17612,163.81133 L 368.17612,109.11355 L 386.61854,109.11355 C 396.76184,109.11355 423.95706,109.44375 447.05232,109.85074 L 489.0438,110.58025 L 489.0438,120.36333 L 489.0438,130.14643 L 483.78498,130.14643 L 478.52615,130.14643 L 479.13627,146.92513 C 479.47172,156.16301 479.74622,166.18414 479.74622,169.19433 L 479.74622,174.67717 L 483.00039,174.22412 L 486.25446,173.77104 L 486.25446,185.17442 L 486.25446,196.57009 L 493.92492,196.57777 C 498.14371,196.57777 510.06775,196.90798 520.42283,197.30728 L 539.25033,198.0368 L 539.25033,180.69753 L 539.25033,163.35826 L 549.47762,163.35826 L 559.70487,163.35826 L 559.70487,184.52938 L 559.70487,205.6928 L 589.22447,204.89417 L 618.74413,204.09557 L 627.0647,255.69104 L 635.38532,307.29414 L 639.73984,307.29414 L 644.09438,307.29414 L 644.77849,332.80389 C 645.15479,346.83348 645.18924,358.64384 644.85542,359.05084 C 643.79379,360.31023 590.01939,365.94662 589.45185,364.84855 C 588.79725,363.58917 458.16328,375.62989 457.44283,377.0198 C 457.16548,377.54967 431.63262,378.32522 400.70305,378.72456 L 344.46753,379.46169 L 313.61796,336.73558 z M 472.3082,175.70616 L 472.3082,130.48431 L 450.36,129.69337 C 438.28848,129.25566 428.24169,129.10976 428.03374,129.35549 C 427.82588,129.60122 428.24639,131.50562 428.96813,133.57896 C 429.97027,136.45092 430.44172,147.08639 430.96239,178.5474 L 431.64427,219.7608 L 442.44634,220.10635 C 448.38745,220.29834 457.53683,220.55942 462.77823,220.69764 L 472.3082,220.928 L 472.3082,175.70616 z M 417.1173,202.39081 C 416.80181,192.79969 416.2729,173.0492 415.94195,158.48975 L 415.3401,132.03548 L 404.16373,132.75731 C 398.01675,133.14893 390.17775,133.47146 386.74362,133.47146 L 380.49996,133.47146 L 379.90723,155.88657 C 379.58127,168.21909 379.05626,187.65474 378.7404,199.06579 L 378.16613,219.82221 L 397.92853,219.82221 L 417.69081,219.82221 L 417.1173,202.39081 z"
            id="path2554" />
         <circle cx="315" cy="345" r="60"/>
         <circle cx="555" cy="345" r="60"/>
      </g>
</svg>
