<?xml version="1.0" encoding="utf-8"?>
<!-- Generator: Adobe Illustrator 12.0.1, SVG Export Plug-In  -->
<!DOCTYPE svg PUBLIC "-//W3C//DTD SVG 1.1//EN" "http://www.w3.org/Graphics/SVG/1.1/DTD/svg11.dtd" [
	<!ENTITY ns_flows "http://ns.adobe.com/Flows/1.0/">
	<!ENTITY ns_svg "http://www.w3.org/2000/svg">
	<!ENTITY ns_xlink "http://www.w3.org/1999/xlink">
]>
<svg  version="1.1" xmlns="&ns_svg;" xmlns:xlink="&ns_xlink;" xmlns:a="http://ns.adobe.com/AdobeSVGViewerExtensions/3.0/"
	 width="336" height="336" viewBox="-0.658 -0.725 336 336" enable-background="new -0.658 -0.725 336 336" xml:space="preserve">
<defs>
</defs>
<rect x="30" y="30" fill="#FFFFFF" stroke="#000000" stroke-width="3" width="275" height="275"/>
<line fill="none" stroke="#000000" stroke-width="2" x1="0" y1="167.5" x2="335" y2="167.5"/>
<line fill="none" stroke="#000000" stroke-width="2" x1="167.5" y1="0" x2="167.5" y2="335"/>
<circle fill="none" stroke="#000000" cx="167.5" cy="167.5" r="137.5"/>
<line fill="none" stroke="#000000" stroke-width="2" x1="30" y1="30" x2="306.171" y2="306.171"/>
<path fill="#E32322" d="M221.852,222.566c0,35.345,6.339,46.505,15.891,46.505c8.473,0,15.891-4.948,18.542-9.294
	c2.114-3.078,3.169-4.34,5.304-2.471l5.305,4.947c1.574,1.869,2.63,4.947-0.539,11.157c-4.248,9.341-14.317,30.399-41.333,30.399
	c-19.082,0-32.858-16.107-37.623-41.557h-1.057c-11.126,15.501-28.611,28.53-52.459,37.871c-10.069,3.686-19.599,3.686-31.263,3.686
	c-12.721,0-31.803-12.372-31.803-51.455c0-28.58,11.125-53.371,52.997-75.084c23.848-12.419,51.401-27.314,59.875-36.001v-39.688
	c-1.056-10.553-1.595-26.71-7.417-34.79c-5.822-8.029-16.429-13.634-31.803-13.634c-10.587,0-27.016,4.949-34.433,13.028
	c-7.417,8.079-2.652,17.37-2.652,28.528c0,21.713-6.36,35.396-28.073,35.396c-8.495,0-12.72-5.604-12.72-19.843
	c0-19.895,14.834-43.475,36.567-58.371c22.25-15.502,40.793-21.713,64.641-21.713c24.902,0,34.971,8.687,42.388,16.765
	c11.125,13.027,11.664,27.317,11.664,44.081v94.928V222.566z M183.171,159.905c-19.081,16.712-71.022,29.131-71.022,80.636
	c0,22.975,11.665,34.132,27.556,34.132c15.372,0,43.467-21.71,43.467-38.475V159.905z"/>
</svg>
